<mxfile host="app.diagrams.net" modified="2024-02-29T14:19:04.970Z" agent="Mozilla/5.0 (Windows NT 10.0; Win64; x64) AppleWebKit/537.36 (KHTML, like Gecko) Chrome/122.0.0.0 Safari/537.36" etag="tTPOh8Q84-gZvO2O0eFD" version="23.1.7" type="device">
  <diagram name="1 oldal" id="PtcyVpy5C_HaF79vpfbb">
    <mxGraphModel dx="1434" dy="738" grid="1" gridSize="10" guides="1" tooltips="1" connect="1" arrows="1" fold="1" page="1" pageScale="1" pageWidth="1169" pageHeight="827" math="0" shadow="0">
      <root>
        <mxCell id="0" />
        <mxCell id="1" parent="0" />
        <mxCell id="wsx41-Qk7XKqfbQMxI6e-1" value="Felhasználó" style="rounded=1;whiteSpace=wrap;html=1;" parent="1" vertex="1">
          <mxGeometry x="210" y="135" width="120" height="60" as="geometry" />
        </mxCell>
        <mxCell id="wsx41-Qk7XKqfbQMxI6e-8" style="rounded=0;orthogonalLoop=1;jettySize=auto;html=1;exitX=1;exitY=1;exitDx=0;exitDy=0;entryX=0;entryY=0.25;entryDx=0;entryDy=0;endArrow=none;endFill=0;" parent="1" source="wsx41-Qk7XKqfbQMxI6e-4" target="wsx41-Qk7XKqfbQMxI6e-1" edge="1">
          <mxGeometry relative="1" as="geometry" />
        </mxCell>
        <mxCell id="wsx41-Qk7XKqfbQMxI6e-4" value="Név&lt;br&gt;" style="ellipse;whiteSpace=wrap;html=1;" parent="1" vertex="1">
          <mxGeometry x="60" y="65" width="90" height="60" as="geometry" />
        </mxCell>
        <mxCell id="wsx41-Qk7XKqfbQMxI6e-7" style="rounded=0;orthogonalLoop=1;jettySize=auto;html=1;exitX=1;exitY=0.5;exitDx=0;exitDy=0;entryX=0;entryY=0.5;entryDx=0;entryDy=0;strokeWidth=1;endArrow=none;endFill=0;" parent="1" source="wsx41-Qk7XKqfbQMxI6e-5" target="wsx41-Qk7XKqfbQMxI6e-1" edge="1">
          <mxGeometry relative="1" as="geometry" />
        </mxCell>
        <mxCell id="wsx41-Qk7XKqfbQMxI6e-5" value="Email" style="ellipse;whiteSpace=wrap;html=1;" parent="1" vertex="1">
          <mxGeometry x="50" y="145" width="90" height="60" as="geometry" />
        </mxCell>
        <mxCell id="wsx41-Qk7XKqfbQMxI6e-9" style="rounded=0;orthogonalLoop=1;jettySize=auto;html=1;exitX=0.5;exitY=1;exitDx=0;exitDy=0;entryX=0.5;entryY=0;entryDx=0;entryDy=0;endArrow=none;endFill=0;" parent="1" source="wsx41-Qk7XKqfbQMxI6e-6" target="wsx41-Qk7XKqfbQMxI6e-1" edge="1">
          <mxGeometry relative="1" as="geometry" />
        </mxCell>
        <mxCell id="wsx41-Qk7XKqfbQMxI6e-6" value="Jelszó" style="ellipse;whiteSpace=wrap;html=1;" parent="1" vertex="1">
          <mxGeometry x="150" y="35" width="95" height="60" as="geometry" />
        </mxCell>
        <mxCell id="wsx41-Qk7XKqfbQMxI6e-11" style="rounded=0;orthogonalLoop=1;jettySize=auto;html=1;exitX=0.5;exitY=1;exitDx=0;exitDy=0;entryX=0.75;entryY=0;entryDx=0;entryDy=0;endArrow=none;endFill=0;" parent="1" source="wsx41-Qk7XKqfbQMxI6e-10" target="wsx41-Qk7XKqfbQMxI6e-1" edge="1">
          <mxGeometry relative="1" as="geometry" />
        </mxCell>
        <mxCell id="wsx41-Qk7XKqfbQMxI6e-10" value="Telefonszám" style="ellipse;whiteSpace=wrap;html=1;" parent="1" vertex="1">
          <mxGeometry x="270" y="30" width="95" height="60" as="geometry" />
        </mxCell>
        <mxCell id="wsx41-Qk7XKqfbQMxI6e-13" style="rounded=0;orthogonalLoop=1;jettySize=auto;html=1;exitX=1;exitY=0;exitDx=0;exitDy=0;endArrow=none;endFill=0;" parent="1" source="wsx41-Qk7XKqfbQMxI6e-12" target="wsx41-Qk7XKqfbQMxI6e-1" edge="1">
          <mxGeometry relative="1" as="geometry" />
        </mxCell>
        <mxCell id="wsx41-Qk7XKqfbQMxI6e-12" value="&lt;u&gt;Azonosító&lt;/u&gt;" style="ellipse;whiteSpace=wrap;html=1;" parent="1" vertex="1">
          <mxGeometry x="80" y="235" width="95" height="60" as="geometry" />
        </mxCell>
        <mxCell id="wsx41-Qk7XKqfbQMxI6e-25" value="Lakás/albérlet" style="rounded=1;whiteSpace=wrap;html=1;" parent="1" vertex="1">
          <mxGeometry x="884" y="140" width="120" height="60" as="geometry" />
        </mxCell>
        <mxCell id="wsx41-Qk7XKqfbQMxI6e-26" style="rounded=0;orthogonalLoop=1;jettySize=auto;html=1;exitX=1;exitY=1;exitDx=0;exitDy=0;entryX=0;entryY=0.25;entryDx=0;entryDy=0;endArrow=none;endFill=0;" parent="1" source="wsx41-Qk7XKqfbQMxI6e-27" target="wsx41-Qk7XKqfbQMxI6e-25" edge="1">
          <mxGeometry relative="1" as="geometry" />
        </mxCell>
        <mxCell id="wsx41-Qk7XKqfbQMxI6e-27" value="Település" style="ellipse;whiteSpace=wrap;html=1;" parent="1" vertex="1">
          <mxGeometry x="794" y="5" width="90" height="60" as="geometry" />
        </mxCell>
        <mxCell id="wsx41-Qk7XKqfbQMxI6e-28" style="rounded=0;orthogonalLoop=1;jettySize=auto;html=1;exitX=0.5;exitY=0;exitDx=0;exitDy=0;entryX=0.25;entryY=1;entryDx=0;entryDy=0;strokeWidth=1;endArrow=none;endFill=0;" parent="1" source="wsx41-Qk7XKqfbQMxI6e-29" target="wsx41-Qk7XKqfbQMxI6e-25" edge="1">
          <mxGeometry relative="1" as="geometry" />
        </mxCell>
        <mxCell id="wsx41-Qk7XKqfbQMxI6e-29" value="Méret" style="ellipse;whiteSpace=wrap;html=1;" parent="1" vertex="1">
          <mxGeometry x="880" y="270" width="90" height="60" as="geometry" />
        </mxCell>
        <mxCell id="wsx41-Qk7XKqfbQMxI6e-30" style="rounded=0;orthogonalLoop=1;jettySize=auto;html=1;exitX=0.5;exitY=1;exitDx=0;exitDy=0;entryX=0.5;entryY=0;entryDx=0;entryDy=0;endArrow=none;endFill=0;" parent="1" source="wsx41-Qk7XKqfbQMxI6e-31" target="wsx41-Qk7XKqfbQMxI6e-25" edge="1">
          <mxGeometry relative="1" as="geometry" />
        </mxCell>
        <mxCell id="wsx41-Qk7XKqfbQMxI6e-31" value="Ár" style="ellipse;whiteSpace=wrap;html=1;" parent="1" vertex="1">
          <mxGeometry x="909" y="5" width="95" height="60" as="geometry" />
        </mxCell>
        <mxCell id="wsx41-Qk7XKqfbQMxI6e-32" style="rounded=0;orthogonalLoop=1;jettySize=auto;html=1;exitX=0.5;exitY=1;exitDx=0;exitDy=0;entryX=0.75;entryY=0;entryDx=0;entryDy=0;endArrow=none;endFill=0;" parent="1" source="wsx41-Qk7XKqfbQMxI6e-33" target="wsx41-Qk7XKqfbQMxI6e-25" edge="1">
          <mxGeometry relative="1" as="geometry" />
        </mxCell>
        <mxCell id="wsx41-Qk7XKqfbQMxI6e-33" value="Szobaszám" style="ellipse;whiteSpace=wrap;html=1;" parent="1" vertex="1">
          <mxGeometry x="1020" y="5" width="95" height="60" as="geometry" />
        </mxCell>
        <mxCell id="wsx41-Qk7XKqfbQMxI6e-34" style="rounded=0;orthogonalLoop=1;jettySize=auto;html=1;exitX=0;exitY=0.5;exitDx=0;exitDy=0;endArrow=none;endFill=0;" parent="1" source="wsx41-Qk7XKqfbQMxI6e-35" target="wsx41-Qk7XKqfbQMxI6e-25" edge="1">
          <mxGeometry relative="1" as="geometry" />
        </mxCell>
        <mxCell id="wsx41-Qk7XKqfbQMxI6e-35" value="&lt;u&gt;Azonosító&lt;/u&gt;" style="ellipse;whiteSpace=wrap;html=1;" parent="1" vertex="1">
          <mxGeometry x="1060" y="175" width="95" height="60" as="geometry" />
        </mxCell>
        <mxCell id="wsx41-Qk7XKqfbQMxI6e-37" style="rounded=0;orthogonalLoop=1;jettySize=auto;html=1;exitX=0.5;exitY=1;exitDx=0;exitDy=0;entryX=1;entryY=0.25;entryDx=0;entryDy=0;endArrow=none;endFill=0;" parent="1" source="wsx41-Qk7XKqfbQMxI6e-36" target="wsx41-Qk7XKqfbQMxI6e-25" edge="1">
          <mxGeometry relative="1" as="geometry" />
        </mxCell>
        <mxCell id="wsx41-Qk7XKqfbQMxI6e-36" value="Leírás" style="ellipse;whiteSpace=wrap;html=1;" parent="1" vertex="1">
          <mxGeometry x="1060" y="80" width="95" height="60" as="geometry" />
        </mxCell>
        <mxCell id="wsx41-Qk7XKqfbQMxI6e-41" style="rounded=0;orthogonalLoop=1;jettySize=auto;html=1;exitX=0.5;exitY=0;exitDx=0;exitDy=0;entryX=0.603;entryY=1;entryDx=0;entryDy=0;entryPerimeter=0;endArrow=none;endFill=0;" parent="1" source="wsx41-Qk7XKqfbQMxI6e-40" target="wsx41-Qk7XKqfbQMxI6e-25" edge="1">
          <mxGeometry relative="1" as="geometry" />
        </mxCell>
        <mxCell id="wsx41-Qk7XKqfbQMxI6e-40" value="Utca-házszám&lt;br&gt;" style="ellipse;whiteSpace=wrap;html=1;" parent="1" vertex="1">
          <mxGeometry x="990" y="250" width="95" height="60" as="geometry" />
        </mxCell>
        <mxCell id="wsx41-Qk7XKqfbQMxI6e-45" style="rounded=0;orthogonalLoop=1;jettySize=auto;html=1;exitX=0.5;exitY=0;exitDx=0;exitDy=0;endArrow=none;endFill=0;" parent="1" source="wsx41-Qk7XKqfbQMxI6e-44" target="wsx41-Qk7XKqfbQMxI6e-1" edge="1">
          <mxGeometry relative="1" as="geometry" />
        </mxCell>
        <mxCell id="wsx41-Qk7XKqfbQMxI6e-44" value="Fotók" style="ellipse;whiteSpace=wrap;html=1;" parent="1" vertex="1">
          <mxGeometry x="190" y="260" width="95" height="60" as="geometry" />
        </mxCell>
        <mxCell id="VRwQBvOVTPG4wdSr7d21-5" style="rounded=0;orthogonalLoop=1;jettySize=auto;html=1;exitX=1;exitY=0.5;exitDx=0;exitDy=0;entryX=0;entryY=0.5;entryDx=0;entryDy=0;" parent="1" source="wsx41-Qk7XKqfbQMxI6e-1" target="wsx41-Qk7XKqfbQMxI6e-25" edge="1">
          <mxGeometry relative="1" as="geometry">
            <mxPoint x="695" y="170" as="sourcePoint" />
          </mxGeometry>
        </mxCell>
        <mxCell id="VRwQBvOVTPG4wdSr7d21-6" style="rounded=0;orthogonalLoop=1;jettySize=auto;html=1;exitX=0;exitY=0.25;exitDx=0;exitDy=0;endArrow=none;endFill=0;entryX=0.5;entryY=1;entryDx=0;entryDy=0;" parent="1" source="wsx41-Qk7XKqfbQMxI6e-25" target="VRwQBvOVTPG4wdSr7d21-7" edge="1">
          <mxGeometry relative="1" as="geometry">
            <mxPoint x="608" y="70" as="targetPoint" />
            <mxPoint x="607.5" y="130" as="sourcePoint" />
          </mxGeometry>
        </mxCell>
        <mxCell id="VRwQBvOVTPG4wdSr7d21-7" value="ingatlanos_ID" style="ellipse;whiteSpace=wrap;html=1;" parent="1" vertex="1">
          <mxGeometry x="700" y="50" width="90" height="60" as="geometry" />
        </mxCell>
        <mxCell id="VRwQBvOVTPG4wdSr7d21-8" value="Beszélgetés" style="rounded=1;whiteSpace=wrap;html=1;" parent="1" vertex="1">
          <mxGeometry x="180" y="480" width="120" height="60" as="geometry" />
        </mxCell>
        <mxCell id="VRwQBvOVTPG4wdSr7d21-11" value="Képek" style="rounded=1;whiteSpace=wrap;html=1;" parent="1" vertex="1">
          <mxGeometry x="884" y="490" width="120" height="60" as="geometry" />
        </mxCell>
        <mxCell id="VRwQBvOVTPG4wdSr7d21-13" style="rounded=0;orthogonalLoop=1;jettySize=auto;html=1;exitX=0.5;exitY=0;exitDx=0;exitDy=0;strokeColor=default;endArrow=none;endFill=0;" parent="1" source="VRwQBvOVTPG4wdSr7d21-12" target="wsx41-Qk7XKqfbQMxI6e-1" edge="1">
          <mxGeometry relative="1" as="geometry" />
        </mxCell>
        <mxCell id="VRwQBvOVTPG4wdSr7d21-12" value="Is_ingatlanos" style="ellipse;whiteSpace=wrap;html=1;" parent="1" vertex="1">
          <mxGeometry x="310" y="260" width="95" height="60" as="geometry" />
        </mxCell>
        <mxCell id="ab2y2jbYb46r0rhojLhP-3" style="rounded=0;orthogonalLoop=1;jettySize=auto;html=1;exitX=0.5;exitY=0;exitDx=0;exitDy=0;endArrow=none;endFill=0;entryX=0;entryY=0.75;entryDx=0;entryDy=0;" edge="1" parent="1" source="ab2y2jbYb46r0rhojLhP-2" target="wsx41-Qk7XKqfbQMxI6e-25">
          <mxGeometry relative="1" as="geometry" />
        </mxCell>
        <mxCell id="ab2y2jbYb46r0rhojLhP-2" value="Kerület" style="ellipse;whiteSpace=wrap;html=1;" vertex="1" parent="1">
          <mxGeometry x="750" y="240" width="100" height="60" as="geometry" />
        </mxCell>
      </root>
    </mxGraphModel>
  </diagram>
</mxfile>
